<svg xmlns="http://www.w3.org/2000/svg" viewBox="0 0 64 64" role="img" aria-label="BarTracker logo">
  <rect x="2" y="2" width="60" height="60" rx="14" fill="#f59e0b" />
  <g fill="none" stroke="#ffffff" stroke-width="3.5" stroke-linecap="round" stroke-linejoin="round" transform="translate(8 8)">
    <path d="M34 19h2a6 6 0 0 1 0 12h-2" />
    <path d="M17 20v10" />
    <path d="M23 20v10" />
    <path d="M24 11h2a4 4 0 0 1 4 4v4" />
    <path d="M14 11h16a4 4 0 0 1 4 4v18a4 4 0 0 1-4 4H14a4 4 0 0 1-4-4V15a4 4 0 0 1 4-4Z" />
  </g>
</svg>
